<?xml version="1.0" encoding="iso-8859-1"?>
<!DOCTYPE svg PUBLIC "-//W3C//DTD SVG 1.1//EN" "http://www.w3.org/Graphics/SVG/1.1/DTD/svg11.dtd">
<svg xmlns="http://www.w3.org/2000/svg" xmlns:xlink="http://www.w3.org/1999/xlink" version="1.1" viewBox="0 0 432 432" enable-background="new 0 0 432 432" width="512px" height="512px">
  <g>
    <path d="m147.414,385.419c-2.641,0-5.221,1.07-7.08,2.93-1.86,1.86-2.931,4.44-2.931,7.07 0,2.64 1.07,5.21 2.931,7.07 1.859,1.87 4.439,2.93 7.08,2.93 2.63,0 5.199-1.06 7.06-2.93 1.87-1.86 2.93-4.43 2.93-7.07 0-2.63-1.06-5.21-2.93-7.07-1.861-1.86-4.431-2.93-7.06-2.93z" fill="#FFDC2B"/>
    <path d="m205.855,87.55h168c5.522,0 10-4.477 10-10s-4.478-10-10-10h-168c-5.522,0-10,4.477-10,10s4.478,10 10,10z" fill="#FFDC2B"/>
    <path d="m205.855,117.55h97c5.522,0 10-4.477 10-10s-4.478-10-10-10h-97c-5.522,0-10,4.477-10,10s4.478,10 10,10z" fill="#FFDC2B"/>
    <path d="m205.855,330.523h168c5.522,0 10-4.477 10-10s-4.478-10-10-10h-168c-5.522,0-10,4.477-10,10s4.478,10 10,10z" fill="#FFDC2B"/>
    <path d="m205.855,360.523h95c5.522,0 10-4.477 10-10s-4.478-10-10-10h-95c-5.522,0-10,4.477-10,10s4.478,10 10,10z" fill="#FFDC2B"/>
    <path d="m205.855,223.871h168c5.522,0 10-4.477 10-10s-4.478-10-10-10h-168c-5.522,0-10,4.477-10,10s4.478,10 10,10z" fill="#FFDC2B"/>
    <path d="m410.855,153.55c5.522,0 10-4.477 10-10v-104c0-5.523-4.478-10-10-10h-129.481c-5.848-17.338-22.227-29.55-41.199-29.55h-185.54c-23.98,0-43.49,19.51-43.49,43.49v345.02c0,23.98 19.51,43.49 43.49,43.49h185.54c21.378,0 39.19-15.509 42.807-35.864h127.873c5.522,0 10-4.477 10-10v-101.226c0-5.523-4.478-10-10-10h-127.189v-14.719h127.189c5.522,0 10-4.477 10-10v-72.641c0-5.523-4.478-10-10-10h-127.189v-14h127.189zm-10-20h-247.857l22.929-22.929c1.875-1.875 2.929-4.419 2.929-7.071v-54h222v84zm-346.221-113.55h185.54c7.7,0 14.595,3.732 18.896,9.55h-90.216c-5.522,0-10,4.477-10,10v13.61h-127.71v-9.67c3.55271e-15-12.952 10.538-23.49 23.49-23.49zm185.54,392h-185.54c-12.952,0-23.49-10.538-23.49-23.49v-11.88h127.71v9.506c0,5.523 4.478,10 10,10h93.533c-3.175,9.219-11.93,15.864-22.213,15.864zm160.68-35.864h-222v-51.226c0-5.523-4.478-10-10-10h-15.857l20-20h227.857v81.226zm0-135.945h-247.857l22.929-22.929c1.875-1.875 2.929-4.418 2.929-7.071v-22.641h222v52.641zm-137.19-72.641h-94.811c-5.522,0-10,4.477-10,10v28.499l-37.071,37.071c-2.859,2.86-3.715,7.162-2.168,10.898 1.548,3.737 5.194,6.173 9.239,6.173h134.811v14.719h-94.811c-2.652,0-5.195,1.054-7.071,2.929l-40,40c-2.859,2.86-3.715,7.162-2.168,10.898 1.548,3.737 5.194,6.173 9.239,6.173h30v21.72h-127.71v-283.47h127.71v26.248l-37.071,37.071c-2.859,2.86-3.715,7.162-2.168,10.898 1.548,3.737 5.194,6.173 9.239,6.173h134.811v14z" fill="#FFDC2B"/>
  </g>
</svg>
