<?xml version="1.0" encoding="iso-8859-1"?>
<!-- Generator: Adobe Illustrator 19.1.0, SVG Export Plug-In . SVG Version: 6.00 Build 0)  -->
<svg xmlns="http://www.w3.org/2000/svg" xmlns:xlink="http://www.w3.org/1999/xlink" version="1.1" id="Capa_1" x="0px" y="0px" viewBox="0 0 486.4 486.4" style="enable-background:new 0 0 486.4 486.4;" xml:space="preserve" width="512px" height="512px">
<g>
	<g>
		<path d="M305.413,378.4V402c0,7.4-6,13.5-13.5,13.5h-200.8c-7.4,0-13.5-6-13.5-13.5V84.7c0-7.4,6-13.5,13.5-13.5h200.9    c7.4,0,13.5,6,13.5,13.5v2.4h-0.1v10c4.6-0.4,9.3-0.7,14-0.7c4.6,0,9.2,0.2,13.8,0.7V52.3c0-28.8-23.5-52.3-52.3-52.3h-178.7    c-28.8,0-52.3,23.5-52.3,52.3v381.8c0,28.8,23.5,52.3,52.3,52.3h178.6c28.8,0,52.3-23.5,52.3-52.3v-55.7    c-4.5,0.4-9.1,0.7-13.8,0.7C314.712,379.1,310.112,378.9,305.413,378.4z M214.112,464.5h-50.4c-7.5,0-13.6-6.1-13.6-13.6    s6.1-13.6,13.6-13.6h50.4c7.5,0,13.6,6.1,13.6,13.6C227.712,458.3,221.512,464.5,214.112,464.5z" fill="#ffdc2b"/>
		<path d="M402.212,155c-45.7-45.7-119.9-45.7-165.6,0c-44,44-45.7,114.4-4.9,160.3l1.2,1c-4.4,9.5-12,21.3-24.1,27.3    c-4,2-3.1,7.9,1.3,8.6c13.2,2.1,32.1-0.3,49.8-13.6l0.2,0.2c44.9,26.4,103.6,20.3,142.1-18.2    C447.913,274.8,447.913,200.7,402.212,155z M346.612,275.1c-4.1,5-9.5,8.4-15.8,10.1c-2.7,0.8-4,2.2-3.8,5c0.1,2.8,0,5.6,0,8.4    c0,2.5-1.3,3.8-3.7,3.9c-3,0.1-6,0.1-9,0c-2.6,0-3.9-1.5-3.9-4.1c0-2,0-4.1-0.1-6.1c0-4.5-0.2-4.7-4.5-5.4    c-5.6-0.9-11-2.1-16.1-4.6c-4-1.9-4.4-2.9-3.3-7.1c0.9-3.1,1.7-6.2,2.7-9.3c1.1-3.6,2.1-4,5.4-2.3c5.6,2.9,11.6,4.6,17.8,5.3    c4,0.5,8,0.1,11.7-1.5c7-3,8.1-11.1,2.2-16c-2-1.6-4.3-2.9-6.7-3.9c-6.1-2.7-12.5-4.7-18.2-8.2c-9.4-5.6-15.3-13.3-14.6-24.7    c0.8-12.9,8.1-20.9,19.9-25.2c4.9-1.8,4.9-1.7,4.9-6.8c0-1.7,0-3.4,0-5.2c0.1-3.8,0.8-4.5,4.6-4.6c1.2,0,2.4,0,3.6,0    c8.1,0,8.1,0,8.2,8.1c0,5.8,0,5.8,5.8,6.7c4.4,0.7,8.6,2,12.6,3.8c2.2,1,3.1,2.6,2.4,4.9c-1,3.5-2,7.1-3.1,10.5    c-1.1,3.3-2.1,3.8-5.3,2.2c-6.4-3.1-13-4.4-20-4c-1.8,0.1-3.6,0.3-5.3,1.1c-6.1,2.7-7.1,9.3-1.9,13.5c2.6,2.1,5.6,3.6,8.7,4.9    c5.4,2.2,10.8,4.4,15.9,7.2C353.712,240.8,358.112,261.2,346.612,275.1z" fill="#ffdc2b"/>
	</g>
</g>
<g>
</g>
<g>
</g>
<g>
</g>
<g>
</g>
<g>
</g>
<g>
</g>
<g>
</g>
<g>
</g>
<g>
</g>
<g>
</g>
<g>
</g>
<g>
</g>
<g>
</g>
<g>
</g>
<g>
</g>
</svg>
