<?xml version="1.0" encoding="iso-8859-1"?>
<!-- Generator: Adobe Illustrator 16.0.0, SVG Export Plug-In . SVG Version: 6.00 Build 0)  -->
<!DOCTYPE svg PUBLIC "-//W3C//DTD SVG 1.1//EN" "http://www.w3.org/Graphics/SVG/1.1/DTD/svg11.dtd">
<svg xmlns="http://www.w3.org/2000/svg" xmlns:xlink="http://www.w3.org/1999/xlink" version="1.1" id="Capa_1" x="0px" y="0px" width="512px" height="512px" viewBox="0 0 945.259 945.26" style="enable-background:new 0 0 945.259 945.26;" xml:space="preserve">
<g>
	<path d="M942.75,622.6c-5.8-44.799-13.1-89.299-22.699-133.199c-11-50.4-21.301-103.701-48.601-146.7   c-24.399-38.4-56.899-51.4-93.2-62.9c-16.399-5.2-33.899,3.8-39.699,20.3c-10,28.8-25.301,79-35.801,114   c-3.399,11.5-19.6,11.5-23.1,0c-10.5-35-25.7-85.2-35.8-114c-5.7-16.5-23.2-25.5-39.7-20.3c-28.1,8.9-53.9,18.7-75.4,40.5   l60.801,86.5c5.399,7.6,7.399,16.899,5.8,26.1c-1.601,9.2-6.7,17.2-14.3,22.601l-12.5,8.8c-5.601,20.399-8.9,42.2-6.601,62.299   c2.3,20,25,46.301,22,65.301c-1.2,7.799-5.7,16.9-10,27.1c-4,9.4,3,19.9,13.2,19.9h208.1c10.2,0,17.2-10.4,13.2-19.9   c-4.3-10.199-8.8-19.301-10-27.1c4.101-22.9,19.9-41.5,22-64.801c2.4-27.1,0.101-66.2-8.5-89.299   c24.4,30.5,42.7,119.399,54.8,189.2c1.2,6.9,7.2,11.9,14.101,11.9h47.6C937.151,638.699,943.851,631.1,942.75,622.6z" fill="#FFDC2B"/>
	<path d="M439.75,622.6c-1.1,8.6,5.601,16.1,14.2,16.1h47.601c7,0,12.899-5,14.1-11.898c9.1-52,25.2-114.602,43-155.8l-107.4,75.5   C446.851,571.801,443.051,597.1,439.75,622.6z" fill="#FFDC2B"/>
	<path d="M798.651,57.3C772.851,24,732.551,0,691.151,0s-81.6,24-107.5,57.3c-28.6,37-24.5,80.8-35.6,123.9   c-4.101,16.1-9,32.1-14.801,47.6c28.601,12.6,58.7,2,79.2-8.8c21.101,18.3,48.601,49.5,78.7,49.5s57.6-31.2,78.7-49.5   c20.5,10.7,50.6,21.4,79.2,8.8c-5.801-15.5-10.7-31.5-14.801-47.6C823.151,138.1,827.351,94.3,798.651,57.3z" fill="#FFDC2B"/>
	<path d="M107.051,906c-2.3-1.4-4.1-2.301-6.1-3.6l-44.8-26.5l-22.3-12.801c-9.2-5.299-20.9-2.1-26.2,7.1l-2.7,4.701   c-5.3,9.199-2.1,20.9,7.1,26.199l72.8,41.6c9.2,5.301,20.9,2.102,26.2-7.1l2.7-4.699C118.851,922.1,115.551,911.5,107.051,906z" fill="#FFDC2B"/>
	<path d="M283.051,664.699l-14.5,10.201l-15.7,39.5c4.6,2.5,9.4,3.799,14.1,3.799c12.4,0,21.7-8.398,26-15.5   c3.4-5.699,4.3-13.1,2.5-20.299C293.651,675.199,289.25,669,283.051,664.699z" fill="#FFDC2B"/>
	<path d="M307.651,432.6c-0.5,4.1,0.5,7.8,2.9,11.2c2.399,3.5,5.3,5.6,8.699,6.5c2.101,0.6,4.7,0.6,7.7,0.1l-17.2-24.3   C308.551,428.1,307.851,430.3,307.651,432.6z" fill="#FFDC2B"/>
	<path d="M572.451,443c0.7-0.5,1.3-1,1.9-1.5c0.899-0.801,1.7-1.601,2.399-2.601c5.301-6.7,5.801-16.399,0.601-23.7l-58.7-83.5   l-47.7-67.9c-3.899-5.5-10-8.5-16.3-8.5c-4,0-8,1.2-11.4,3.6L112.851,491.199c-9,6.301-11.2,18.701-4.9,27.801l33.9,48.301   l6.2,8.799l6.7,9.5l31.2,44.4l4.9,6.9l15.1-24.4l1.9-3l4-6.4l12.5-20.1c3.7-6.199,8.8-10.9,14.6-14.199c3.6-2,7.5-3.4,11.5-4.201   c9-1.799,18.7-0.299,27.2,4.701c13.3,7.898,19.4,22.1,17.6,36.299c-0.699,5.301-2.399,10.6-5.3,15.6l-0.8,2.102l-10.4,26.299   l1.801-1.199l10.5-7.4l10.5-7.4l153.8-108L572.451,443z M410.951,487.699c-1.5,9.9-6.1,18.602-13.7,25.701l6.601,9.299   c1.7,2.4,1.1,5.701-1.3,7.4l-7.7,5.5c-2.4,1.701-5.7,1.1-7.4-1.299l-6.6-9.4c-6,2.799-11.601,4.6-16.7,5.299   c-6.5,0.9-13.5-0.1-20.6-3.1c-7.101-2.9-13.7-8-19.5-15.199c-1.7-2.1-1.601-5.1,0.3-7l11.5-11.801c1-1,2.399-1.6,3.8-1.6   s2.8,0.6,3.8,1.699c5.3,5.602,10.101,9.102,14,10.301c3.2,0.9,6.101,1.199,8.9,0.801l-23-32.601c-5.601,2.101-11.8,3.5-18.5,4.201   c-6.8,0.699-13.3-0.4-19.4-3.4c-6-2.9-11.1-7.4-15.3-13.4c-7.5-10.6-9.8-22-6.9-34c1.7-6.9,6-13.8,12.801-20.5l-1.9-2.5   c-1.7-2.4-1.1-5.7,1.3-7.4l7.7-5.5c2.4-1.699,5.7-1.1,7.4,1.301l1.8,2.5c7.5-3.601,14.8-5.101,21.7-4.5   c10.399,0.8,19.699,5.5,27.6,14c2,2.1,1.9,5.399-0.2,7.5l-12.1,11.6c-2.101,2-5.5,2-7.5-0.2c-3.7-3.8-7.2-6.2-10.601-6.899   c-1.3-0.301-2.699-0.4-4-0.301l20,28.301c6-2.301,10.2-3.601,12.801-4.2c6-1.2,11.6-1.4,16.6-0.5c5.1,0.899,10,2.8,14.5,5.8   c4.4,2.9,8.3,6.8,11.6,11.4C409.851,465.1,412.651,476.199,410.951,487.699z" fill="#FFDC2B"/>
	<path d="M371.851,465.5c-1.601-0.5-4.5-0.7-9.4,0.3l19.8,28.1c1.301-2.201,2.101-4.701,2.4-7.4c0.5-4.9-0.8-9.4-4-14   C377.851,468.7,375.051,466.5,371.851,465.5z" fill="#FFDC2B"/>
	<path d="M275.351,613.1c5.8-9.799,2.6-22.4-7.2-28.199c-9.8-5.801-22.4-2.6-28.2,7.199l-17.3,30.201l-18.9,33l-4.1,7.199   l-4.1,7.199l-1.9,3.4l-18,30.801c-2.7,4.299-6.9,6.799-11.7,7.1c-0.3,0-0.5,0-0.8,0c-4.6,0-8.9-2.1-11.6-5.801   c-1.4-1.799-13.2-18.398-8.4-35.398c1.9-6.701,7-15.9,20.7-21.4c0.3-0.1,0.6-0.201,0.9-0.301l12.7-4.1l-44-62.6   c-1-0.1-1.9-0.1-2.9-0.1c-7,0-12.3,1.6-15.7,4.699c-13.5,12.6-45.7,109.199-82.1,246c-1.7,6.4,1.1,13.301,6.8,16.6l68.9,40.9   c2.3,1.4,4.9,2.1,7.6,2.1c5,0,9.6-2.5,12.4-6.6l89.9-134.5l24.4-59l4.5-11l5.3-12.9l22.4-54.1L275.351,613.1z" fill="#FFDC2B"/>
</g>
<g>
</g>
<g>
</g>
<g>
</g>
<g>
</g>
<g>
</g>
<g>
</g>
<g>
</g>
<g>
</g>
<g>
</g>
<g>
</g>
<g>
</g>
<g>
</g>
<g>
</g>
<g>
</g>
<g>
</g>
</svg>
